<?xml version="1.0" encoding="iso-8859-1"?>
<!-- Generator: Adobe Illustrator 19.0.0, SVG Export Plug-In . SVG Version: 6.00 Build 0)  -->
<svg version="1.1" id="Layer_1" xmlns="http://www.w3.org/2000/svg" xmlns:xlink="http://www.w3.org/1999/xlink" x="0px" y="0px"
	 viewBox="0 0 496.028 496.028" style="enable-background:new 0 0 496.028 496.028;" xml:space="preserve">
<rect x="263.214" y="112" style="fill:#05B1E0;" width="128" height="24"/>
<rect x="319.214" y="112" style="fill:#2E9BCC;" width="72" height="24"/>
<path style="fill:#70C638;" d="M471.214,476.8c0,20.8-18.4,19.2-39.2,19.2h-208.8c-20.8,0-40,1.6-40-19.2V171.2
	c0-20.8,20-35.2,40-35.2h208.8c20.8,0,39.2,14.4,39.2,35.2V476.8z"/>
<path style="fill:#4EAF0E;" d="M223.214,136h208.8c20.8,0,39.2,14.4,39.2,35.2v305.6c0,20.8-18.4,19.2-39.2,19.2h-208.8"/>
<path style="fill:#3F9109;" d="M432.814,136c20.8,0,38.4,14.4,38.4,35.2v305.6c0,20.8-17.6,19.2-38.4,19.2"/>
<g>
	<path style="fill:#074568;" d="M328.014,229.6c-48,0-87.2,39.2-87.2,87.2s39.2,87.2,87.2,87.2s87.2-39.2,87.2-87.2
		S376.014,229.6,328.014,229.6z M328.014,344.8c-16,0-28.8-12.8-28.8-28.8s12.8-28.8,28.8-28.8s28.8,12.8,28.8,28.8
		S343.214,344.8,328.014,344.8z"/>
	<path style="fill:#074568;" d="M415.214,105.6c0,6.4-2.4,14.4-8,14.4h-158.4c-5.6,0-9.6-8-9.6-14.4V8.8c0-7.2,3.2-8.8,9.6-8.8
		h158.4c5.6,0,8,1.6,8,8.8V105.6z"/>
</g>
<path style="fill:#022B3A;" d="M247.214,0h160c5.6,0,8,1.6,8,8.8v97.6c0,6.4-2.4,14.4-8,14.4h-160"/>
<g>
	<path style="fill:#074568;" d="M406.414,92c0,1.6-1.6,4-2.4,4h-152c-1.6,0-2.4-2.4-2.4-4l0,0c0-1.6,1.6-4,2.4-4h152
		C405.614,88,406.414,90.4,406.414,92L406.414,92z"/>
	<path style="fill:#074568;" d="M406.414,20c0,1.6-1.6,4-2.4,4h-152c-1.6,0-2.4-2.4-2.4-4l0,0c0-1.6,1.6-4,2.4-4h152
		C405.614,16,406.414,18.4,406.414,20L406.414,20z"/>
</g>
<g>
	<path style="fill:#022B3A;" d="M328.014,229.6C328.014,229.6,327.214,229.6,328.014,229.6l-0.8,58.4h0.8c16,0,28.8,12.8,28.8,28.8
		s-12.8,28.8-28.8,28.8h-0.8V404h0.8c48,0,87.2-39.2,87.2-87.2S376.014,229.6,328.014,229.6z"/>
	<path style="fill:#022B3A;" d="M247.214,66.4c0,3.2-4.8,5.6-8,5.6l0,0c-3.2,0-8-2.4-8-5.6V48c0-3.2,4.8-5.6,8-5.6l0,0
		c3.2,0,8,2.4,8,5.6V66.4z"/>
</g>
<path style="fill:#70C638;" d="M447.214,144c0,4.8-3.2,8-8,8h-224c-4.8,0-8-3.2-8-8l0,0c0-4.8,3.2-8,8-8h224
	C444.014,136,447.214,139.2,447.214,144L447.214,144z"/>
<circle style="fill:#3F9109;" cx="203.214" cy="59.2" r="8"/>
<circle style="fill:#70C638;" cx="160.814" cy="59.2" r="8"/>
<circle style="fill:#3F9109;" cx="118.414" cy="59.2" r="8"/>
<circle style="fill:#70C638;" cx="75.214" cy="59.2" r="8"/>
<g>
	<circle style="fill:#3F9109;" cx="32.814" cy="59.2" r="8"/>
	<circle style="fill:#3F9109;" cx="160.814" cy="94.4" r="8"/>
</g>
<circle style="fill:#70C638;" cx="118.414" cy="94.4" r="8"/>
<circle style="fill:#3F9109;" cx="75.214" cy="94.4" r="8"/>
<circle style="fill:#70C638;" cx="32.814" cy="94.4" r="8"/>
<circle style="fill:#3F9109;" cx="118.414" cy="128.8" r="8"/>
<circle style="fill:#70C638;" cx="75.214" cy="128.8" r="8"/>
<g>
	<circle style="fill:#3F9109;" cx="32.814" cy="128.8" r="8"/>
	<circle style="fill:#3F9109;" cx="160.814" cy="23.2" r="8"/>
</g>
<circle style="fill:#70C638;" cx="118.414" cy="23.2" r="8"/>
<circle style="fill:#3F9109;" cx="75.214" cy="23.2" r="8"/>
<circle style="fill:#70C638;" cx="32.814" cy="23.2" r="8"/>
<g>
</g>
<g>
</g>
<g>
</g>
<g>
</g>
<g>
</g>
<g>
</g>
<g>
</g>
<g>
</g>
<g>
</g>
<g>
</g>
<g>
</g>
<g>
</g>
<g>
</g>
<g>
</g>
<g>
</g>
</svg>
